<svg id="Layer_1" data-name="Layer 1" xmlns="http://www.w3.org/2000/svg" viewBox="0 0 52 53"><defs><style>.cls-1{fill:#2a2c33;}</style></defs><title>print</title><path class="cls-1" d="M48.28,39.35a0.88,0.88,0,0,1-.86.86h-6V44.5a2.57,2.57,0,0,1-2.57,2.57H13.14a2.57,2.57,0,0,1-2.57-2.57V40.21h-6a0.88,0.88,0,0,1-.86-0.86V28.21a5.18,5.18,0,0,1,5.14-5.14h1.71V8.5a2.57,2.57,0,0,1,2.57-2.57h18a7.09,7.09,0,0,1,4.39,1.82l4.07,4.07a7.09,7.09,0,0,1,1.82,4.39v6.86h1.71a5.18,5.18,0,0,1,5.14,5.14V39.35ZM38,26.5V16.22H33.71a2.57,2.57,0,0,1-2.57-2.57V9.36H14V26.5H38Zm0,17.14V36.78H14v6.86H38ZM43.13,26.5a1.71,1.71,0,1,0,1.71,1.71A1.73,1.73,0,0,0,43.13,26.5Z"/></svg>