<?xml version="1.0" standalone="no"?>
<!DOCTYPE svg PUBLIC "-//W3C//DTD SVG 1.1//EN" "http://www.w3.org/Graphics/SVG/1.1/DTD/svg11.dtd" >
<svg xmlns="http://www.w3.org/2000/svg">
<metadata>Generated by IcoMoon</metadata>
<defs>
<font id="icomoon" horiz-adv-x="1024">
<font-face units-per-em="1024" ascent="960" descent="-64" />
<missing-glyph horiz-adv-x="1024" />
<glyph unicode="&#x20;" horiz-adv-x="512" d="" />
<glyph unicode="&#xe916;" glyph-name="alert" horiz-adv-x="1184" d="M512 960h159.902c282.77 0 512-229.23 512-512s-229.23-512-512-512h-159.902c-282.77 0-512 229.23-512 512s229.23 512 512 512z" />
<glyph unicode="&#xe917;" glyph-name="carrot-down" horiz-adv-x="1724" d="M1725.63 962.413l-864.366-1024-864.022 1024z" />
<glyph unicode="&#xe918;" glyph-name="close" d="M1023.134-6.341l-56.793-56.793-454.341 454.341-454.341-454.341-56.793 56.793 454.341 454.341-454.341 454.341 56.793 56.793 454.341-454.341 454.341 454.341 56.793-56.793-454.341-454.341 454.341-454.341z" />
<glyph unicode="&#xe919;" glyph-name="fullscreen" horiz-adv-x="1027" d="M441.908 454.389l-336.222-336.77v309.299h-106.963v-491.739h491.922v106.963h-309.482l336.953 336.679-76.207 75.568zM533.447 961.46v-106.872h309.482l-336.861-336.131 76.207-76.116 336.131 336.679v-309.299h106.963v491.739h-491.922z" />
<glyph unicode="&#xe91a;" glyph-name="fb" horiz-adv-x="551" d="M-0.158 607.35v0-195.663h158.247v-474.821h196.923v474.821h196.923v195.663h-196.923v100.352c0 33.398 20.165 60.18 38.676 60.18h158.247v192.276h-158.247c-129.575 0-235.599-113.743-235.599-255.842v-96.965h-158.247z" />
<glyph unicode="&#xe91b;" glyph-name="instagram" horiz-adv-x="988" d="M808.724-64h-631.335c-98.068 0-177.546 82.471-177.546 184.241v654.887c0 101.77 79.478 184.241 177.546 184.241h631.335c98.068 0 177.625-82.471 177.625-184.241v-654.887c0-101.77-79.557-184.241-177.625-184.241zM492.623 610.422c-87.040 0-157.538-72.704-157.538-162.422s70.498-162.501 157.538-162.501c86.961 0 157.538 72.783 157.538 162.501s-70.577 162.422-157.538 162.422zM866.777 836.962h-155.097v-164.943h155.097v164.943zM887.65 550.006h-138.319c11.815-31.744 18.983-65.93 18.983-102.006 0-157.696-123.431-285.538-275.692-285.538s-275.692 127.842-275.692 285.538c0 36.076 7.089 70.262 18.905 102.006h-137.295v-368.404c0-79.084 61.834-143.281 138.082-143.281h512.945c76.249 0 138.082 64.197 138.082 143.281v368.404z" />
<glyph unicode="&#xe91c;" glyph-name="arrow-left" horiz-adv-x="5679" d="M5678.173 399.313h-5488.361l398.615-393.309-70.563-68.98-518.051 511.162 518.051 511.069 70.563-68.98-398.615-393.309h5488.361v-97.652z" />
<glyph unicode="&#xe91d;" glyph-name="logo" horiz-adv-x="15360" d="M15325.867 98.133c-25.6-34.133-51.2-59.733-85.333-85.333s-76.8-42.667-119.467-59.733c-42.667-17.067-85.333-17.067-119.467-17.067-17.067 0-42.667 0-59.733 8.533-17.067 0-42.667 8.533-51.2 17.067-17.067 8.533-34.133 17.067-42.667 34.133s-17.067 34.133-17.067 51.2c0 17.067 0 34.133 8.533 42.667 0 17.067 8.533 25.6 8.533 42.667 0 8.533 0 17.067 8.533 25.6 0 8.533 0 17.067 8.533 25.6 0 0 0 0 8.533 0 0 0 8.533 0 8.533-8.533v-17.067c0-25.6 8.533-51.2 17.067-76.8 8.533-17.067 25.6-42.667 42.667-51.2 17.067-17.067 34.133-25.6 59.733-34.133s51.2-8.533 76.8-8.533c25.6 0 42.667 0 68.267 8.533s42.667 17.067 68.267 34.133c17.067 17.067 34.133 34.133 51.2 51.2 8.533 17.067 17.067 42.667 17.067 68.267s-8.533 42.667-17.067 68.267c-8.533 25.6-25.6 42.667-42.667 68.267s-42.667 42.667-68.267 68.267c-25.6 25.6-51.2 42.667-76.8 68.267s-51.2 51.2-76.8 68.267c-25.6 25.6-51.2 51.2-68.267 76.8s-34.133 51.2-51.2 76.8c-17.067 25.6-17.067 51.2-17.067 76.8 0 42.667 8.533 76.8 34.133 102.4s51.2 51.2 85.333 68.267c34.133 17.067 76.8 34.133 110.933 42.667 25.6 25.6 59.733 25.6 93.867 25.6 51.2 0 93.867-8.533 136.533-17.067 0 0 0 0 0-8.533 0-25.6-8.533-59.733-8.533-85.333s-8.533-59.733-8.533-85.333c0 0 0 0 0-8.533 0 0 0 0 0-8.533 0 0 0 0-8.533-8.533 0 0-8.533 0-8.533 0-8.533 17.067-8.533 42.667-25.6 59.733-8.533 17.067-25.6 34.133-34.133 51.2-17.067 17.067-34.133 25.6-51.2 34.133s-42.667 8.533-59.733 8.533c-25.6 0-42.667 0-68.267-8.533-17.067-8.533-42.667-17.067-51.2-34.133-17.067-17.067-25.6-34.133-34.133-51.2s-17.067-42.667-17.067-59.733c0-25.6 8.533-42.667 17.067-68.267 8.533-17.067 25.6-42.667 42.667-59.733s34.133-42.667 59.733-59.733c25.6-17.067 42.667-34.133 68.267-59.733 25.6-17.067 51.2-42.667 76.8-68.267s51.2-42.667 68.267-68.267c17.067-25.6 34.133-51.2 51.2-76.8 8.533-25.6 17.067-59.733 17.067-93.867 8.533-8.533 0-51.2-25.6-85.333zM14668.8 840.533c0-25.6-8.533-59.733-8.533-76.8 0 0 0 0-8.533 0 0 0-8.533 0-8.533 0-8.533 25.6-8.533 42.667-25.6 51.2s-25.6 25.6-34.133 34.133c-17.067 8.533-34.133 17.067-51.2 17.067s-34.133 8.533-59.733 8.533h-170.667v-768c0-34.133 8.533-68.267 34.133-93.867s51.2-42.667 85.333-42.667c0 0 0 0 0-8.533s0-8.533-8.533-8.533c-34.133 0-68.267 8.533-93.867 8.533-34.133 0-68.267 0-102.4 0-25.6 0-51.2 0-68.267 0-25.6 0-51.2 0-68.267-8.533 0 0-8.533 0-8.533 8.533 0 0 0 8.533 0 8.533 25.6 8.533 42.667 8.533 51.2 17.067s25.6 8.533 25.6 17.067c8.533 8.533 8.533 17.067 8.533 34.133s0 34.133 0 51.2v776.533h-230.4c-25.6 0-51.2-8.533-76.8-25.6s-42.667-42.667-51.2-68.267c0 0 0 0-8.533 0 0 0 0 0 0 8.533s0 17.067 0 25.6 0 34.133 8.533 51.2c8.533 17.067 8.533 34.133 17.067 51.2 0 8.533 8.533 17.067 8.533 25.6s8.533 17.067 8.533 25.6c0 8.533 8.533 8.533 8.533 0 17.067-8.533 34.133-17.067 59.733-25.6 17.067 0 42.667-8.533 59.733-8.533h597.333c8.533 0 17.067 0 25.6 0s17.067 0 25.6 8.533c8.533 0 8.533 0 17.067 0s8.533 0 17.067 0c0 0 0 0 0-8.533v-8.533c25.6-17.067 25.6-42.667 25.6-76.8zM13294.933 772.267c-8.533-8.533-8.533-25.6-17.067-34.133s-8.533-25.6-8.533-34.133c-17.067-51.2-34.133-102.4-51.2-153.6s-34.133-102.4-51.2-153.6h247.467l-119.467 375.467zM13806.933-38.4c-8.533 0-25.6 0-34.133 0s-25.6 0-34.133 0c-8.533 0-17.067 0-25.6 0s-17.067 0-25.6 0c-25.6 0-42.667 0-68.267 0s-42.667 0-68.267-8.533c-8.533 0-8.533 0-17.067 0s-8.533 0-17.067 0c0 0-8.533 0-8.533 0s0 8.533 0 8.533l76.8 34.133c-25.6 59.733-42.667 110.933-68.267 170.667s-42.667 110.933-68.267 170.667h-290.133c-8.533-17.067-17.067-34.133-25.6-68.267s-25.6-59.733-34.133-93.867c-8.533-34.133-25.6-68.267-34.133-93.867-8.533-34.133-17.067-51.2-17.067-68.267 0-8.533 0-17.067 8.533-25.6s8.533-8.533 17.067-17.067c8.533 0 17.067-8.533 25.6-8.533s17.067 0 25.6 0v-8.533c-8.533 0-17.067 0-25.6 0s-17.067 0-25.6 0-34.133 0-42.667 0c-17.067 0-34.133 0-42.667 0-17.067 0-34.133 0-51.2 0s-34.133 0-51.2 0c-8.533 0-17.067 0-25.6 0s-17.067 0-25.6 0c0 0-8.533 0-8.533 8.533 0 0 0 8.533 0 8.533 34.133 8.533 68.267 17.067 93.867 34.133s42.667 42.667 59.733 68.267c34.133 85.333 68.267 170.667 102.4 247.467 34.133 85.333 59.733 170.667 93.867 256 25.6 59.733 42.667 128 68.267 187.733s51.2 128 68.267 187.733c0 0 0 0 8.533 0 0 0 8.533 0 8.533 0 8.533-8.533 8.533-25.6 17.067-34.133 8.533-17.067 8.533-25.6 17.067-42.667 25.6-68.267 51.2-136.533 76.8-204.8s59.733-136.533 85.333-213.333c25.6-68.267 59.733-136.533 93.867-204.8s68.267-136.533 102.4-196.267c17.067-25.6 34.133-42.667 59.733-59.733 25.6-8.533 51.2-17.067 85.333-25.6 0 0 0 0 0-8.533 0 0 0-8.533 0-8.533l-59.733 8.533zM12646.4 64c0-25.6-8.533-42.667-8.533-68.267v0-34.133c0 0 0-8.533-8.533-8.533 0 0 0 0 0 0h-102.4c-25.6 0-59.733 0-85.333 0s-59.733 0-85.333 0c-25.6 0-59.733 0-85.333 0h-85.333c-25.6 0-59.733 0-85.333 0v8.533c17.067 0 34.133 8.533 51.2 8.533 8.533 8.533 17.067 17.067 25.6 25.6s8.533 25.6 17.067 42.667c0 17.067 0 34.133 0 42.667v759.467c0 17.067 0 25.6-8.533 34.133 0 8.533-8.533 17.067-17.067 17.067-8.533 8.533-8.533 8.533-17.067 8.533s-17.067 0-25.6 8.533c-8.533 0-17.067 0-25.6 8.533-8.533 0-17.067 8.533-25.6 17.067 0 0 0 0 0 8.533 0 0 0 0 0 0h85.333c34.133 0 68.267 0 110.933 0s85.333 0 119.467 0c25.6 0 59.733 0 85.333 0s51.2 0 76.8 0c25.6 0 42.667 0 59.733 0s25.6 0 34.133 8.533c8.533 0 8.533 0 8.533 0 0-25.6-8.533-51.2-8.533-76.8-8.533-25.6-8.533-51.2-17.067-68.267 0-8.533 0-8.533 0-8.533s0-8.533 0-8.533c0 0 0 0-8.533 0 0 0-8.533 0-8.533 8.533 0 42.667-17.067 68.267-42.667 85.333s-59.733 17.067-102.4 17.067h-179.2v-375.467h213.333c8.533 0 17.067 0 25.6 8.533 8.533 0 17.067 8.533 25.6 8.533s17.067 8.533 25.6 8.533c8.533 0 17.067 8.533 25.6 8.533s8.533 0 8.533-8.533c0-17.067 0-25.6-8.533-42.667 0-17.067 0-25.6-8.533-42.667 0-17.067-8.533-34.133-8.533-51.2s-8.533-34.133-8.533-51.2c0 0 0-8.533 0-8.533s-8.533 0-8.533 0c-8.533 8.533-8.533 8.533-8.533 17.067s-8.533 17.067-8.533 17.067c0 8.533 0 17.067-8.533 17.067 0 8.533-8.533 17.067-17.067 17.067-8.533 8.533-17.067 8.533-34.133 17.067-17.067 0-34.133 8.533-51.2 8.533s-42.667 0-59.733 0h-93.867v-366.933c8.533-17.067 17.067-25.6 34.133-34.133s25.6-17.067 42.667-25.6c17.067-8.533 34.133-8.533 51.2-17.067 17.067 0 34.133-8.533 51.2-8.533 42.667 0 76.8 8.533 110.933 34.133s51.2 51.2 59.733 93.867h8.533c8.533-17.067 0-42.667 0-59.733zM11460.267 729.6c-8.533 34.133-25.6 59.733-42.667 85.333s-42.667 42.667-68.267 59.733c-25.6 17.067-59.733 25.6-93.867 25.6-17.067 0-34.133 0-42.667 0-17.067 0-34.133-8.533-42.667-8.533v-452.267c17.067 0 42.667-8.533 68.267-8.533s42.667 0 59.733 0c68.267 0 119.467 17.067 145.067 51.2s42.667 85.333 42.667 153.6c-8.533 25.6-17.067 59.733-25.6 93.867zM11878.4-55.467c-25.6-8.533-42.667-8.533-68.267-8.533-34.133 0-68.267 8.533-102.4 17.067-34.133 17.067-59.733 34.133-85.333 51.2-25.6 25.6-51.2 42.667-68.267 76.8-25.6 25.6-42.667 51.2-59.733 85.333-17.067 25.6-42.667 59.733-68.267 85.333-25.6 34.133-51.2 51.2-68.267 76.8-17.067 17.067-42.667 25.6-59.733 25.6-25.6 0-51.2 8.533-68.267 8.533h-34.133c-8.533 0-17.067 0-34.133 0v-256c0-34.133 8.533-68.267 34.133-93.867s51.2-42.667 85.333-42.667v-8.533c-25.6 0-59.733 8.533-85.333 8.533s-59.733 0-85.333 0c-25.6 0-59.733 0-85.333 0s-59.733-8.533-85.333-8.533c0 0-8.533 0-8.533 0s0 8.533 0 8.533c25.6 8.533 51.2 25.6 68.267 51.2s25.6 51.2 25.6 76.8v716.8c0 25.6-8.533 51.2-34.133 76.8-25.6 17.067-42.667 34.133-76.8 42.667 0 0 0 0 0 8.533 0 0 0 0 8.533 0h25.6c17.067 0 25.6 0 42.667 0s25.6 0 42.667 0 51.2 0 85.333 0c25.6 0 59.733 0 93.867 0 17.067 0 34.133 0 42.667 0 17.067 0 25.6 0 42.667 0 42.667 0 76.8-8.533 110.933-17.067s68.267-25.6 102.4-42.667c25.6-17.067 51.2-42.667 68.267-76.8s25.6-68.267 25.6-110.933c0-25.6-8.533-59.733-17.067-85.333s-25.6-51.2-34.133-76.8c-17.067-25.6-34.133-51.2-51.2-68.267-17.067-25.6-42.667-42.667-59.733-59.733 17.067-17.067 25.6-34.133 42.667-51.2 17.067-25.6 34.133-42.667 51.2-68.267 25.6-34.133 59.733-76.8 85.333-110.933 34.133-34.133 59.733-68.267 93.867-102.4s68.267-51.2 102.4-68.267c34.133-17.067 76.8-25.6 110.933-17.067v-8.533c-8.533-25.6-25.6-25.6-51.2-34.133zM10760.533 840.533c0-25.6-8.533-59.733-8.533-76.8 0 0 0 0-8.533 0 0 0-8.533 0-8.533 0-8.533 25.6-8.533 42.667-25.6 51.2s-25.6 25.6-34.133 34.133c-17.067 8.533-34.133 17.067-51.2 17.067s-34.133 8.533-59.733 8.533h-170.667v-768c0-34.133 8.533-68.267 34.133-93.867s51.2-42.667 85.333-42.667c0 0 0 0 0-8.533s0-8.533-8.533-8.533c-34.133 0-68.267 8.533-93.867 8.533-34.133 0-68.267 0-102.4 0-25.6 0-51.2 0-68.267 0-25.6 0-51.2 0-68.267-8.533 0 0-8.533 0-8.533 8.533 0 0 0 8.533 0 8.533 25.6 8.533 42.667 8.533 51.2 17.067s25.6 8.533 25.6 17.067c8.533 8.533 8.533 17.067 8.533 34.133s0 34.133 0 51.2v776.533h-230.4c-25.6 0-51.2-8.533-76.8-25.6s-42.667-42.667-51.2-68.267c0 0 0 0-8.533 0 0 0 0 0 0 8.533s0 17.067 0 25.6 0 34.133 8.533 51.2c8.533 17.067 8.533 34.133 17.067 51.2 0 8.533 8.533 17.067 8.533 25.6s8.533 17.067 8.533 25.6c0 8.533 8.533 8.533 8.533 0 17.067-8.533 34.133-17.067 59.733-25.6 17.067 0 42.667-8.533 59.733-8.533h597.333c8.533 0 17.067 0 25.6 0s17.067 0 25.6 8.533c8.533 0 8.533 0 17.067 0s8.533 0 17.067 0c0 0 0 0 0-8.533v-8.533c25.6-17.067 25.6-42.667 25.6-76.8zM9728 64c0-25.6-8.533-42.667-8.533-68.267v0-34.133c0 0 0-8.533-8.533-8.533 0 0 0 0 0 0h-102.4c-25.6 0-59.733 0-85.333 0s-59.733 0-85.333 0c-25.6 0-59.733 0-85.333 0h-85.333c-25.6 0-59.733 0-85.333 0v8.533c17.067 0 34.133 8.533 51.2 8.533 8.533 8.533 17.067 17.067 25.6 25.6s8.533 25.6 17.067 42.667c0 17.067 0 34.133 0 42.667v759.467c0 17.067 0 25.6-8.533 34.133 0 8.533-8.533 17.067-17.067 17.067-8.533 8.533-8.533 8.533-17.067 8.533s-17.067 0-25.6 8.533c-8.533 0-17.067 0-25.6 8.533-8.533 0-17.067 8.533-25.6 17.067 0 0 0 0 0 8.533 0 0 0 0 0 0h85.333c34.133 0 68.267 0 110.933 0s85.333 0 119.467 0c25.6 0 59.733 0 85.333 0s51.2 0 76.8 0c25.6 0 42.667 0 59.733 0s25.6 0 34.133 8.533c8.533 0 8.533 0 8.533 0 0-25.6-8.533-51.2-8.533-76.8-8.533-25.6-8.533-51.2-17.067-68.267 0-8.533 0-8.533 0-8.533s0-8.533 0-8.533c0 0 0 0-8.533 0 0 0-8.533 0-8.533 8.533 0 42.667-17.067 68.267-42.667 85.333s-59.733 17.067-102.4 17.067h-145.067v-375.467h213.333c8.533 0 17.067 0 25.6 8.533 8.533 0 17.067 8.533 25.6 8.533s17.067 8.533 25.6 8.533 17.067 8.533 25.6 8.533 8.533 0 8.533-8.533c0-17.067 0-25.6-8.533-42.667 0-17.067 0-25.6-8.533-42.667 0-17.067-8.533-34.133-8.533-51.2s-8.533-34.133-8.533-51.2c0 0 0-8.533 0-8.533s-8.533 0-8.533 0c-8.533 8.533-8.533 8.533-8.533 17.067s-8.533 17.067-8.533 17.067 0 17.067-8.533 17.067-8.533 17.067-17.067 17.067c-8.533 8.533-17.067 8.533-34.133 17.067-17.067 0-34.133 8.533-51.2 8.533s-42.667 0-59.733 0h-102.4v-366.933c8.533-17.067 17.067-25.6 34.133-34.133s25.6-17.067 42.667-25.6c17.067-8.533 34.133-8.533 51.2-17.067 17.067 0 34.133-8.533 51.2-8.533 42.667 0 76.8 8.533 110.933 34.133s51.2 51.2 59.733 93.867h8.533c-17.067-17.067-17.067-42.667-25.6-59.733zM8550.4 729.6c-8.533 34.133-25.6 59.733-42.667 85.333s-42.667 42.667-68.267 59.733c-25.6 17.067-59.733 25.6-93.867 25.6-17.067 0-34.133 0-42.667 0-17.067 0-34.133-8.533-42.667-8.533v-452.267c17.067 0 42.667-8.533 68.267-8.533s42.667 0 59.733 0c68.267 0 119.467 17.067 145.067 51.2s42.667 85.333 42.667 153.6c-17.067 25.6-17.067 59.733-25.6 93.867zM8968.533-55.467c-25.6-8.533-42.667-8.533-68.267-8.533-34.133 0-68.267 8.533-102.4 17.067-34.133 17.067-59.733 34.133-85.333 51.2-25.6 25.6-51.2 42.667-68.267 76.8-25.6 25.6-42.667 51.2-59.733 85.333-17.067 25.6-42.667 59.733-68.267 85.333-25.6 34.133-51.2 51.2-68.267 76.8-17.067 17.067-42.667 25.6-59.733 25.6-25.6 0-51.2 8.533-68.267 8.533h-42.667c-8.533 0-17.067 0-34.133 0v-256c0-34.133 8.533-68.267 34.133-93.867s51.2-42.667 85.333-42.667v-8.533c-25.6 0-59.733 8.533-85.333 8.533s-59.733 0-85.333 0c-25.6 0-59.733 0-85.333 0s-59.733-8.533-85.333-8.533c0 0-8.533 0-8.533 0s0 8.533 0 8.533c25.6 8.533 51.2 25.6 68.267 51.2s25.6 51.2 25.6 76.8v716.8c0 25.6-8.533 51.2-34.133 76.8-25.6 17.067-42.667 34.133-76.8 42.667 0 0 0 0 0 8.533 0 0 0 0 8.533 0h25.6c17.067 0 25.6 0 42.667 0s25.6 0 42.667 0 51.2 0 85.333 0c25.6 0 59.733 0 93.867 0 17.067 0 34.133 0 42.667 0 17.067 0 25.6 0 42.667 0 42.667 0 76.8-8.533 110.933-17.067s68.267-25.6 102.4-42.667c25.6-17.067 51.2-42.667 68.267-76.8s25.6-68.267 25.6-110.933c0-25.6-8.533-59.733-17.067-85.333s-25.6-51.2-34.133-76.8c-17.067-25.6-34.133-51.2-51.2-68.267-17.067-25.6-42.667-42.667-59.733-59.733 17.067-17.067 25.6-34.133 42.667-51.2 17.067-25.6 34.133-42.667 51.2-68.267 25.6-34.133 59.733-76.8 85.333-110.933 34.133-34.133 59.733-68.267 93.867-102.4s68.267-51.2 102.4-68.267c34.133-17.067 76.8-25.6 110.933-17.067v-8.533c0-25.6-25.6-25.6-42.667-34.133zM7347.2 123.733c0 0 0-8.533 0-8.533 0-25.6-8.533-51.2-8.533-76.8s-8.533-51.2-25.6-68.267c0 0 0 0 0-8.533 0 0 0-8.533 0-8.533s0 0-8.533 0c-93.867 8.533-187.733 8.533-281.6 8.533-76.8 0-153.6 0-230.4 0-8.533 0-25.6 0-42.667 0s-25.6 0-34.133 0c0 0 0 0 0 8.533 0 0 0 8.533 0 8.533 17.067 0 25.6 8.533 34.133 17.067s17.067 17.067 25.6 34.133c8.533 8.533 17.067 25.6 17.067 42.667s8.533 25.6 8.533 42.667v708.267c0 34.133-8.533 51.2-34.133 68.267-17.067 17.067-42.667 25.6-76.8 25.6v17.067c59.733 0 110.933 0 170.667 0 25.6 0 51.2 0 85.333 0 25.6 0 51.2 0 76.8 8.533 0 0 8.533 0 8.533-8.533 0 0 0-8.533 0-8.533-25.6-8.533-51.2-17.067-68.267-34.133-25.6-17.067-34.133-42.667-34.133-68.267v-665.6c0-25.6 8.533-42.667 17.067-68.267 8.533-17.067 25.6-34.133 34.133-51.2 17.067-17.067 34.133-25.6 51.2-34.133s42.667-8.533 68.267-8.533 93.867 8.533 128 34.133c42.667 25.6 68.267 59.733 93.867 102.4h8.533c17.067 0 17.067 0 17.067-8.533zM6033.067 772.267c-8.533-8.533-8.533-25.6-17.067-34.133 0-8.533-8.533-25.6-8.533-34.133-17.067-51.2-34.133-102.4-51.2-153.6s-34.133-102.4-51.2-153.6h247.467l-119.467 375.467zM6545.067-38.4c-8.533 0-25.6 0-34.133 0s-25.6 0-34.133 0c-8.533 0-17.067 0-25.6 0s-17.067 0-25.6 0c-25.6 0-42.667 0-68.267 0s-42.667 0-68.267-8.533c-8.533 0-8.533 0-17.067 0s-8.533 0-17.067 0c0 0-8.533 0-8.533 0s0 8.533 0 8.533l76.8 34.133c-25.6 59.733-42.667 110.933-68.267 170.667s-42.667 110.933-68.267 170.667h-298.667c-8.533-17.067-17.067-34.133-25.6-68.267s-25.6-59.733-34.133-93.867c-8.533-34.133-25.6-68.267-34.133-93.867-8.533-34.133-17.067-51.2-17.067-68.267 0-8.533 0-17.067 8.533-25.6s8.533-8.533 17.067-17.067c8.533 0 17.067-8.533 25.6-8.533s17.067 0 25.6 0v-8.533c-8.533 0-17.067 0-25.6 0s-17.067 0-25.6 0-34.133 0-42.667 0c-17.067 0-34.133 0-42.667 0-17.067 0-34.133 0-51.2 0s-34.133 0-51.2 0c-8.533 0-17.067 0-25.6 0s-17.067 0-25.6 0c0 0-8.533 0-8.533 8.533 0 0 0 8.533 0 8.533 34.133 8.533 68.267 17.067 93.867 34.133s42.667 42.667 59.733 68.267c34.133 85.333 68.267 170.667 102.4 247.467 34.133 85.333 59.733 170.667 93.867 256 25.6 59.733 42.667 128 68.267 187.733s51.2 128 68.267 187.733c0 0 0 0 8.533 0s8.533 0 8.533 0c-8.533-17.067 0-25.6 0-42.667 8.533-17.067 8.533-25.6 17.067-42.667 25.6-68.267 51.2-136.533 76.8-204.8s59.733-136.533 85.333-213.333c34.133-68.267 59.733-136.533 93.867-204.8s68.267-136.533 102.4-196.267c17.067-25.6 34.133-42.667 59.733-59.733 25.6-8.533 51.2-17.067 85.333-25.6 0 0 0 0 0-8.533 0 0 0-8.533 0-8.533l-34.133 17.067zM4983.467 729.6c-8.533 34.133-25.6 59.733-42.667 85.333s-42.667 42.667-68.267 59.733c-25.6 17.067-59.733 25.6-93.867 25.6-17.067 0-34.133 0-42.667 0-17.067 0-34.133-8.533-42.667-8.533v-452.267c17.067 0 42.667-8.533 68.267-8.533s42.667 0 59.733 0c68.267 0 119.467 17.067 145.067 51.2s42.667 85.333 42.667 153.6c-8.533 25.6-8.533 59.733-25.6 93.867zM5410.133-55.467c-25.6-8.533-51.2-8.533-76.8-8.533-34.133 0-68.267 8.533-102.4 17.067-34.133 17.067-59.733 34.133-85.333 51.2-25.6 25.6-51.2 42.667-68.267 76.8-25.6 25.6-42.667 51.2-59.733 85.333-17.067 25.6-42.667 59.733-68.267 85.333-25.6 34.133-51.2 51.2-68.267 76.8-17.067 17.067-42.667 25.6-59.733 25.6-25.6 0-51.2 8.533-68.267 8.533h-34.133c-8.533 0-17.067 0-34.133 0v-256c0-34.133 8.533-68.267 34.133-93.867s51.2-42.667 85.333-42.667v-8.533c-25.6 0-59.733 8.533-85.333 8.533s-59.733 0-85.333 0c-25.6 0-59.733 0-85.333 0s-59.733-8.533-85.333-8.533c0 0-8.533 0-8.533 0s0 8.533 0 8.533c25.6 8.533 51.2 25.6 68.267 51.2s25.6 51.2 25.6 76.8v716.8c0 25.6-8.533 51.2-34.133 76.8-25.6 17.067-42.667 34.133-76.8 42.667 0 0 0 0 0 8.533 0 0 0 0 8.533 0h25.6c17.067 0 25.6 0 42.667 0s25.6 0 42.667 0 51.2 0 85.333 0c25.6 0 59.733 0 93.867 0 17.067 0 34.133 0 42.667 0 17.067 0 25.6 0 42.667 0 42.667 0 76.8-8.533 110.933-17.067s68.267-25.6 102.4-42.667c25.6-17.067 51.2-42.667 68.267-76.8 17.067-25.6 25.6-59.733 25.6-102.4 0-25.6-8.533-59.733-17.067-85.333s-25.6-51.2-34.133-76.8c-17.067-25.6-34.133-51.2-51.2-68.267-17.067-25.6-42.667-42.667-59.733-59.733 17.067-17.067 25.6-34.133 42.667-51.2 25.6-34.133 42.667-59.733 59.733-85.333 25.6-34.133 59.733-76.8 85.333-110.933 34.133-34.133 59.733-68.267 93.867-102.4s68.267-51.2 102.4-68.267c34.133-17.067 76.8-25.6 110.933-17.067v-8.533c-8.533-17.067-34.133-17.067-51.2-25.6zM4206.933 883.2c-17.067-17.067-25.6-42.667-25.6-68.267v-477.867c0-51.2-8.533-102.4-25.6-153.6s-42.667-93.867-76.8-128c-34.133-34.133-76.8-68.267-119.467-85.333-51.2-17.067-102.4-34.133-162.133-34.133-42.667 0-85.333 8.533-128 17.067-42.667 17.067-85.333 34.133-119.467 59.733s-68.267 51.2-93.867 85.333c-25.6 34.133-51.2 68.267-59.733 110.933 0 8.533-8.533 25.6-8.533 42.667 0 25.6 0 51.2-8.533 76.8 0 34.133 0 59.733 0 102.4 0 34.133 0 68.267 0 110.933 0 34.133 0 68.267 0 102.4s0 59.733 0 85.333c0 17.067 0 34.133 0 51.2s0 25.6 0 34.133c0 34.133-8.533 59.733-25.6 76.8s-42.667 25.6-76.8 34.133c0 0 0 0 0 8.533 0 0 0 8.533 8.533 8.533 34.133 0 76.8 0 110.933 0s68.267 0 110.933 0h51.2c17.067 0 34.133 0 51.2 0 0 0 8.533 0 8.533 0s0-8.533 0-8.533c-8.533-8.533-17.067-8.533-34.133-17.067-8.533-8.533-17.067-17.067-34.133-25.6-8.533-8.533-17.067-17.067-25.6-25.6s-8.533-17.067-8.533-34.133v-136.533c0-42.667 0-93.867 0-136.533s0-93.867 0-136.533v-136.533c0-42.667 8.533-76.8 25.6-110.933s34.133-59.733 59.733-85.333c25.6-25.6 59.733-42.667 93.867-51.2s76.8-17.067 119.467-17.067c42.667 0 85.333 8.533 119.467 17.067 34.133 17.067 68.267 34.133 93.867 59.733s42.667 51.2 59.733 85.333c17.067 34.133 25.6 68.267 25.6 110.933v110.933c0 42.667 0 93.867 0 136.533s0 93.867 0 136.533v136.533c0 34.133-8.533 59.733-25.6 76.8s-42.667 25.6-85.333 34.133c0 0 0 0 0 8.533 0 0 0 8.533 8.533 8.533 17.067 0 34.133 0 51.2 0h119.467c17.067 0 42.667 0 59.733 0s42.667 0 59.733 0h17.067v-8.533c-68.267-17.067-93.867-25.6-110.933-51.2zM3106.133 840.533c0-25.6-8.533-59.733-8.533-76.8 0 0 0 0-8.533 0 0 0-8.533 0-8.533 0 0 25.6-8.533 42.667-17.067 51.2-8.533 17.067-25.6 25.6-34.133 34.133-17.067 8.533-34.133 17.067-51.2 17.067s-34.133 8.533-59.733 8.533h-170.667v-768c0-34.133 8.533-68.267 34.133-93.867s51.2-42.667 85.333-42.667c0 0 0 0 0-8.533 0 0 0-8.533-8.533-8.533-34.133 0-68.267 8.533-93.867 8.533-34.133 0-68.267 0-102.4 0-25.6 0-51.2 0-68.267 0-25.6 0-51.2 0-68.267-8.533 0 0-8.533 0-8.533 8.533 0 0 0 8.533 0 8.533 25.6 8.533 42.667 8.533 51.2 17.067s25.6 8.533 25.6 17.067c8.533 8.533 8.533 17.067 8.533 34.133s0 34.133 0 51.2v776.533h-230.4c-25.6 0-51.2-8.533-76.8-25.6s-42.667-42.667-51.2-68.267c0 0 0 0-8.533 0 0 0 0 0 0 8.533s0 17.067 0 25.6 0 34.133 8.533 51.2c8.533 17.067 8.533 34.133 17.067 51.2 0 8.533 8.533 17.067 8.533 25.6s8.533 17.067 8.533 25.6c0 8.533 8.533 8.533 8.533 0 17.067-8.533 34.133-17.067 59.733-25.6 17.067 0 42.667-8.533 59.733-8.533h597.333c8.533 0 17.067 0 25.6 0s17.067 0 25.6 8.533c8.533 0 8.533 0 17.067 0s8.533 0 17.067 0c0 0 0 0 0-8.533v-8.533c17.067-17.067 17.067-42.667 17.067-76.8zM1732.267 772.267c-8.533-8.533-8.533-25.6-17.067-34.133 0-17.067-8.533-25.6-8.533-34.133-17.067-51.2-34.133-102.4-51.2-153.6s-34.133-102.4-51.2-153.6h247.467l-119.467 375.467zM2244.267-38.4c-8.533 0-25.6 0-34.133 0s-25.6 0-34.133 0c-8.533 0-17.067 0-25.6 0s-17.067 0-25.6 0c-25.6 0-42.667 0-68.267 0s-42.667 0-68.267-8.533c-8.533 0-8.533 0-17.067 0s-8.533 0-17.067 0c0 0-8.533 0-8.533 0s0 8.533 0 8.533l76.8 34.133c-25.6 59.733-42.667 110.933-68.267 170.667s-42.667 110.933-68.267 170.667h-290.133c-8.533-17.067-17.067-34.133-25.6-68.267s-25.6-59.733-34.133-93.867c-8.533-34.133-25.6-68.267-34.133-93.867-8.533-34.133-17.067-51.2-17.067-68.267 0-8.533 0-17.067 8.533-25.6s8.533-8.533 17.067-17.067c8.533 0 17.067-8.533 25.6-8.533s17.067 0 25.6 0v-8.533c-8.533 0-17.067 0-25.6 0s-17.067 0-25.6 0-34.133 0-42.667 0c-17.067 0-34.133 0-42.667 0-17.067 0-34.133 0-51.2 0s-34.133 0-51.2 0c-8.533 0-17.067 0-25.6 0s-17.067 0-25.6 0c0 0-8.533 0-8.533 8.533s0 8.533 0 8.533c34.133 8.533 68.267 17.067 93.867 34.133s42.667 42.667 59.733 68.267c34.133 85.333 68.267 170.667 102.4 247.467 34.133 85.333 59.733 170.667 93.867 256 25.6 59.733 42.667 128 68.267 187.733s51.2 128 68.267 187.733c0 0 0 0 8.533 0s8.533 0 8.533 0c8.533-8.533 8.533-25.6 17.067-34.133 8.533-17.067 8.533-25.6 17.067-42.667 25.6-68.267 51.2-136.533 76.8-204.8s59.733-136.533 85.333-213.333c25.6-68.267 59.733-136.533 93.867-204.8s68.267-136.533 102.4-196.267c17.067-25.6 34.133-42.667 59.733-59.733 25.6-8.533 51.2-17.067 85.333-25.6 0 0 0 0 0-8.533 0 0 0-8.533 0-8.533l-59.733 8.533zM1083.733 917.333c0 0 0 0 0 0-17.067 0-25.6-8.533-34.133-8.533s-17.067-8.533-25.6-8.533c-8.533 0-17.067-8.533-17.067-17.067-8.533-8.533-8.533-17.067-8.533-25.6v-110.933c0-34.133 0-68.267 0-110.933 0-34.133 0-68.267 0-110.933v-110.933c0-76.8 0-162.133 0-238.933s-8.533-162.133-17.067-238.933c0 0 0 0 0-8.533 0 0-8.533 0-8.533 0-119.467 119.467-238.933 230.4-358.4 349.867-110.933 110.933-221.867 230.4-324.267 349.867-25.6 17.067-34.133 42.667-51.2 51.2-17.067 17.067-34.133 34.133-51.2 59.733 0-17.067 0-34.133-8.533-51.2 0-17.067 0-34.133 0-51.2 0-42.667 0-93.867 0-136.533s0-93.867 8.533-136.533c0-42.667 0-93.867 8.533-136.533 0-42.667 0-93.867 0-136.533 0-25.6 0-42.667 8.533-51.2 0-8.533 8.533-25.6 17.067-25.6 8.533-8.533 17.067-8.533 17.067-17.067s17.067-8.533 25.6-8.533c8.533 0 17.067 0 34.133-8.533 8.533 0 25.6-8.533 34.133-17.067 0 0 0 0 0-8.533 0 0 0 0-8.533 0-17.067 0-25.6 0-42.667 0s-25.6 0-42.667 0c-17.067 0-34.133 0-51.2 8.533-17.067 0-34.133 0-51.2 0-25.6 0-42.667 0-68.267 0s-51.2-8.533-68.267-8.533c0 0 0 0-8.533 0 0 0 0 8.533 0 8.533 8.533 8.533 17.067 8.533 25.6 17.067s17.067 8.533 25.6 17.067c8.533 8.533 17.067 8.533 25.6 8.533 8.533 8.533 17.067 17.067 25.6 17.067 8.533 8.533 8.533 17.067 17.067 25.6 0 8.533 8.533 25.6 8.533 42.667v34.133c0 17.067 0 34.133 0 59.733 0 51.2 0 110.933 0 179.2s0 136.533 0 213.333c0 51.2 0 93.867 0 136.533s0 85.333 0 119.467c0 34.133 0 59.733 8.533 85.333 0 25.6 8.533 34.133 8.533 42.667 0 0 8.533 0 8.533 0 136.533-136.533 264.533-264.533 401.067-401.067 128-136.533 256-264.533 384-409.6v8.533c0 110.933 0 221.867 0 332.8s0 221.867 0 332.8c0 25.6 0 42.667-8.533 51.2s-8.533 25.6-17.067 25.6c-8.533 8.533-17.067 8.533-25.6 8.533s-17.067 0-25.6 8.533c-8.533 0-17.067 0-25.6 8.533-8.533 0-17.067 8.533-25.6 8.533 0 0 0 0 0 8.533 0 0 0 0 8.533 0 25.6 0 51.2-8.533 76.8-8.533s51.2 0 76.8 0h51.2c8.533 0 17.067 0 25.6 0s17.067 0 25.6 0c8.533 0 8.533 0 17.067 0s17.067 0 17.067 0l-17.067-17.067c8.533 0 0 0 0 0z" />
<glyph unicode="&#xe91e;" glyph-name="Navigatedown2" horiz-adv-x="1787" d="M1788.925 829.739l-895.548-895.548-895.548 895.548 127.91 127.91 767.638-767.638 767.638 767.638 127.91-127.91z" />
<glyph unicode="&#xe91f;" glyph-name="carrot-right" horiz-adv-x="614" d="M78.029-65.229l-76.8 73.318 460.902 439.91-460.902 439.91 76.8 73.318 537.702-513.229-537.702-513.229z" />
<glyph unicode="&#xe920;" glyph-name="carrot-up" horiz-adv-x="1707" d="M1586.517-61.952l-733.184 768.171-733.184-768.171-122.197 128 855.381 896.171 855.381-896.171-122.197-128z" />
<glyph unicode="&#xe922;" glyph-name="Phone" horiz-adv-x="819" d="M819.2 113.493c0 20.48-27.307 34.133-40.96 47.787-20.48 13.653-122.88 109.227-170.667 129.707-34.133 20.48-47.787-13.653-68.267-47.787 0 0-6.827-6.827-6.827-13.653l245.76-197.973c20.48 27.307 40.96 61.44 40.96 81.92zM505.173 195.413c-6.827 0-20.48-6.827-34.133 0-122.88 88.747-211.627 225.28-286.72 382.293-6.827 20.48 0 34.133 0 40.96 6.827 6.827 13.653 6.827 20.48 13.653l-109.227 273.067c-27.307-20.48-47.787-40.96-68.267-75.093-13.653-27.307-34.133-47.787-27.307-81.92 13.653-95.573 54.613-307.2 197.973-498.347 136.533-191.147 341.333-286.72 430.080-314.027 20.48-6.827 47.787 13.653 68.267 20.48 20.48 13.653 47.787 34.133 68.267 54.613l-238.933 191.147c-13.653 0-13.653-6.827-20.48-6.827zM293.547 680.107c20.48 6.827 20.48 27.307 13.653 54.613-27.307 75.093-54.613 143.36-81.92 197.973-6.827 13.653-20.48 34.133-47.787 20.48-13.653-6.827-34.133-13.653-47.787-20.48l109.227-286.72c20.48 13.653 34.133 20.48 54.613 34.133z" />
<glyph unicode="&#xe923;" glyph-name="Pin" horiz-adv-x="591" d="M295.385 960c-161.477 0-295.385-137.846-295.385-303.262 0-169.354 295.385-720.738 295.385-720.738s295.385 551.385 295.385 720.738c0 165.415-133.908 303.262-295.385 303.262zM295.385 463.754c-102.4 0-185.108 86.646-185.108 192.985s82.708 192.985 185.108 192.985 185.108-86.646 185.108-192.985c0-110.277-82.708-192.985-185.108-192.985z" />
<glyph unicode="&#xe924;" glyph-name="pinterest" horiz-adv-x="753" d="M749.332 550.006c-21.425-109.095-38.361-256.63-256.473-306.964 0 0-127.449-33.398-169.826 64.433-25.994-104.842-52.618-202.594-66.954-228.194-34.186-61.046-98.619-142.651-98.619-142.651s18.432 183.926 19.692 224.492c1.969 62.7 59.234 347.924 59.234 347.924s-54.114 200.074 78.927 225.201c0 0 107.835 26.782 78.927-122.801 0 0-21.74-98.462-48.601-211.023l9.137-14.178c0 0 26.545-54.745 78.927-61.361 52.303-6.617 194.166 92.948 197.238 266.082s-31.586 222.838-177.546 266.082c-147.456 43.559-269.785-30.641-315.628-163.761-52.066-151.001-9.531-187.471 19.692-225.122l-19.692-102.321c0 0-141.627 49.782-138.161 204.642s88.537 389.199 394.634 389.199c302.868 0 376.517-300.583 355.092-409.679z" />
<glyph unicode="&#xe925;" glyph-name="right" horiz-adv-x="5679" d="M0.372 496.687h5488.361l-398.615 393.309 70.563 68.98 518.051-511.162-518.051-511.069-70.563 68.98 398.615 393.309h-5488.361v97.652z" />
<glyph unicode="&#xe926;" glyph-name="search" d="M1024 55.467l-315.733 315.733c34.133 59.733 59.733 128 59.733 204.8 0 213.333-170.667 384-384 384s-384-170.667-384-384c0-213.333 170.667-384 384-384 76.8 0 145.067 25.6 204.8 59.733l315.733-315.733 119.467 119.467zM136.533 576c0 136.533 110.933 247.467 247.467 247.467s247.467-110.933 247.467-247.467-110.933-247.467-247.467-247.467-247.467 110.933-247.467 247.467z" />
<glyph unicode="&#xe927;" glyph-name="star" horiz-adv-x="1115" d="M558.238 961.024l131.545-391.168h425.748l-344.458-241.664 131.623-390.932-344.458 241.585-344.458-241.585 131.545 390.932-344.458 241.664h425.748l131.623 391.168z" />
<glyph unicode="&#xe928;" glyph-name="twitter" horiz-adv-x="1249" d="M1247.753 838.818c-44.596-19.296-93.566-34.305-146.739-40.737 53.173 34.305 91.508 83.618 112.777 141.508-48.97-25.729-106.345-51.457-163.806-60.033-46.826 49.313-110.633 81.474-187.219 81.474-140.393 0-255.228-117.923-255.228-261.575 0-17.152 2.144-38.593 6.432-55.745-212.776 8.576-399.909 111.491-527.523 270.151-21.269-38.593-34.048-81.474-34.048-130.787 0-90.050 42.538-169.466 114.836-214.491-46.74 0-85.076 12.864-119.124 30.017 0-2.144 0-2.144 0-2.144 0-124.355 89.364-227.27 206.344-252.998-21.269-4.288-42.538-8.576-68.095-8.576-16.981 0-29.759 2.144-46.74 6.432 31.904-102.915 125.47-177.956 238.247-180.1-87.22-70.754-197.853-109.347-316.977-109.347-21.269 0-42.538 0-61.663 2.144 114.836-75.042 248.882-118.009 393.477-118.009 470.062 0 727.434 392.448 727.434 737.726 0 10.72 0 21.441 0 30.017 48.97 38.593 93.652 85.762 127.614 135.075z" />
<glyph unicode="&#xe929;" glyph-name="USERNAMEnavigatedown2" horiz-adv-x="1803" d="M903.731-66.062l901.212 884.489-141.802 140.428-759.409-745.206-759.409 745.206-141.802-140.428 901.212-884.489z" />
<glyph unicode="&#xe92c;" glyph-name="play" horiz-adv-x="640" d="M0.256 960.384l640.128-512-640.128-512z" />
</font>
</defs>
</svg>
