<svg id="Layer_1" data-name="Layer 1" xmlns="http://www.w3.org/2000/svg" viewBox="0 0 24 24"><defs><style>.cls-1{fill:#313641;}</style></defs><title>Untitled-1</title><path class="cls-1" d="M7.57,23.33l2.84-3.95a0.54,0.54,0,0,0-.57-0.79H4.16a0.54,0.54,0,0,0-.57.79l2.84,3.95A0.75,0.75,0,0,0,7.57,23.33Z"/><path class="cls-1" d="M22,19.27H2A1.72,1.72,0,0,1,.25,17.55V5A1.72,1.72,0,0,1,2,3.27H22A1.72,1.72,0,0,1,23.75,5V17.55A1.72,1.72,0,0,1,22,19.27ZM19.5,8.36V7.71a0.3,0.3,0,0,0-.3-0.3H4.8a0.3,0.3,0,0,0-.3.3V8.36a0.3,0.3,0,0,0,.3.3H19.2A0.3,0.3,0,0,0,19.5,8.36Zm0,3.24V10.95a0.3,0.3,0,0,0-.3-0.3H4.8a0.3,0.3,0,0,0-.3.3V11.6a0.3,0.3,0,0,0,.3.3H19.2A0.3,0.3,0,0,0,19.5,11.6Zm-5,3.24V14.19a0.3,0.3,0,0,0-.3-0.3H4.8a0.3,0.3,0,0,0-.3.3v0.65a0.3,0.3,0,0,0,.3.3h9.4A0.3,0.3,0,0,0,14.5,14.84Z"/></svg>