<?xml version="1.0" encoding="utf-8"?>
<!-- Generator: Adobe Illustrator 19.2.0, SVG Export Plug-In . SVG Version: 6.00 Build 0)  -->
<svg version="1.1" id="Layer_1" xmlns="http://www.w3.org/2000/svg" xmlns:xlink="http://www.w3.org/1999/xlink" x="0px" y="0px"
	 viewBox="0 0 323 22.5" style="enable-background:new 0 0 323 22.5;" xml:space="preserve">
<style type="text/css">
	.st0{fill:#58595B;}
</style>
<g>
	<path class="st0" d="M138.3,21.8c-0.7-0.1-1.2-0.2-1.7-0.5c-0.5-0.3-0.9-0.7-1.2-1.3c-0.7-1.4-1.4-2.8-2.1-4.3
		c-0.7-1.5-1.3-3-1.9-4.6c-0.6-1.5-1.2-3.1-1.8-4.6c-0.6-1.5-1.1-3-1.7-4.5c-0.1-0.3-0.2-0.6-0.3-0.9c-0.1-0.3-0.2-0.6-0.3-0.8
		c0-0.1-0.1-0.1-0.1-0.1s-0.1,0-0.1,0.1c-0.5,1.4-1,2.7-1.5,4.1c-0.5,1.4-1,2.8-1.5,4.1c-0.7,1.9-1.3,3.7-2,5.6
		c-0.7,1.8-1.4,3.7-2.1,5.5c-0.3,0.7-0.7,1.2-1.2,1.6c-0.5,0.4-1.1,0.6-1.9,0.7c-0.1,0-0.1,0.1-0.1,0.1c0,0.1,0,0.1,0.1,0.1
		c0.2,0,0.4,0,0.6,0s0.4,0,0.6,0c0.3,0,0.7-0.1,1-0.1c0.3,0,0.7,0,1,0c0.3,0,0.7,0,1,0c0.3,0,0.7,0,1,0.1c0.2,0,0.3,0,0.5,0
		s0.3,0,0.5,0v-0.2c-0.2,0-0.3,0-0.5-0.1c-0.2,0-0.4-0.1-0.5-0.2c-0.2-0.1-0.3-0.2-0.4-0.3c-0.1-0.1-0.2-0.3-0.2-0.5
		c0-0.3,0.1-0.8,0.3-1.4c0.2-0.7,0.4-1.3,0.6-2.1c0.2-0.7,0.5-1.4,0.7-2.1c0.3-0.7,0.4-1.2,0.6-1.5h6.2c0.5,1.2,0.9,2.5,1.4,3.7
		c0.5,1.2,1,2.5,1.4,3.7l-1.6,0.7c-0.1,0-0.1,0.1-0.1,0.2c0,0.1,0.1,0.1,0.1,0.1c0.1,0,0.2,0,0.3,0c0.1,0,0.3,0,0.3,0
		c0.5,0,1-0.1,1.5-0.1c0.5,0,1,0,1.5,0c0.2,0,0.4,0,0.6,0c0.2,0,0.4,0,0.6,0.1c0.2,0,0.5,0.1,0.7,0.1c0.3,0,0.5,0,0.8,0l0.7,0
		c0.1,0,0.1,0,0.1-0.1C138.4,21.8,138.3,21.8,138.3,21.8z M124.1,12.5c0.4-1.1,0.8-2.3,1.1-3.4c0.3-1.1,0.7-2.2,1.1-3.4
		c0.1-0.3,0.2-0.5,0.2-0.8c0.1-0.3,0.2-0.5,0.3-0.8l2.6,8.3H124.1z"/>
	<path class="st0" d="M112.6,21.2c-0.8-0.4-1.5-0.9-2.2-1.6c-0.7-0.7-1.4-1.4-2-2.2c-0.6-0.8-1.2-1.6-1.8-2.4
		c-0.4-0.5-0.8-1-1.1-1.5c-0.4-0.5-0.7-0.9-1-1.2c0.4-0.4,0.8-0.9,1.3-1.3c0.4-0.5,0.8-1,1.1-1.6c0.3-0.6,0.6-1.1,0.8-1.8
		c0.2-0.6,0.3-1.2,0.3-1.8c0-0.9-0.2-1.8-0.6-2.4c-0.4-0.7-0.9-1.2-1.5-1.6c-0.6-0.4-1.3-0.7-2.1-0.9c-0.8-0.2-1.6-0.3-2.4-0.3
		c-0.3,0-0.6,0-0.9,0c-0.3,0-0.6,0-0.9,0c-0.6,0.1-1.3,0.1-1.9,0.1c-0.6,0-1.2,0-1.7-0.1c-0.3,0-0.6,0-0.8,0c-0.3,0-0.6,0-0.9,0
		h-0.6c-0.1,0-0.1,0-0.1,0.1s0,0.1,0.1,0.1c0.6,0.2,1.1,0.5,1.6,0.9c0.5,0.5,0.7,1,0.7,1.6v15.7c0,0.6-0.2,1.2-0.6,1.7
		c-0.4,0.5-0.8,0.9-1.4,1.2c-0.1,0-0.1,0.1-0.1,0.2c0,0.1,0.1,0.1,0.1,0.1c0.6-0.1,1.2-0.1,1.8-0.2c0.6,0,1.2-0.1,1.8-0.1
		c0.6,0,1.2,0,1.8,0.1c0.6,0,1.2,0.1,1.8,0.1v-0.2c-0.8-0.1-1.4-0.4-1.9-0.9c-0.5-0.6-0.7-1.2-0.7-2v-5.6c0.2,0,0.4,0,0.6,0h0.6
		c0.5,0,1,0,1.5,0.1c0.5,0.1,0.9,0.3,1.3,0.6c0.5,0.4,1,1,1.5,1.6c0.5,0.7,1,1.3,1.4,1.9c0.4,0.6,0.8,1.2,1.3,1.8
		c0.5,0.6,1,1.2,1.5,1.6c0.5,0.5,1.1,0.9,1.8,1.2c0.6,0.3,1.3,0.5,2.1,0.5c0.5,0,1-0.1,1.5-0.2c0.5-0.1,0.9-0.3,1.4-0.5l-0.1-0.2
		C114.2,21.7,113.4,21.6,112.6,21.2z M101.2,11.7c-0.4,0-0.9,0-1.3,0c-0.5,0-0.9-0.1-1.3-0.2V1.7c0.3-0.1,0.6-0.2,0.9-0.2
		c0.3,0,0.6-0.1,1-0.1c0.8,0,1.5,0.2,2,0.5c0.6,0.3,1.1,0.8,1.5,1.4c0.4,0.6,0.7,1.2,0.9,1.9c0.2,0.7,0.3,1.4,0.3,2.1
		c0,1.4-0.3,2.5-0.9,3.3C103.7,11.3,102.7,11.7,101.2,11.7z"/>
	<path class="st0" d="M89.6,0.6c-0.4,0-0.9,0-1.3,0c-0.4,0-0.8,0-1.2,0h-1.4h-1c-0.3,0-0.7,0-1-0.1c-0.1,0-0.1,0-0.1,0.1
		c0,0.1,0,0.1,0.1,0.1c0.8,0.1,1.3,0.4,1.7,0.7C85.8,1.8,86,2.4,86,3.2v3c0,1,0,2,0,3c0,1,0,2,0,3v3c0,0.9-0.2,1.7-0.5,2.5
		c-0.3,0.7-0.8,1.4-1.3,1.9c-0.6,0.5-1.2,0.9-2,1.2c-0.8,0.3-1.6,0.4-2.5,0.4c-0.9,0-1.7-0.1-2.4-0.4c-0.8-0.3-1.4-0.7-2-1.2
		c-0.6-0.5-1-1.1-1.3-1.9c-0.3-0.7-0.5-1.5-0.5-2.4v-3c0-1,0-2,0-3c0-1,0-2,0-3v-3c0-0.3,0.1-0.5,0.2-0.7C74,2.3,74.2,2,74.4,1.8
		s0.4-0.4,0.6-0.5c0.2-0.2,0.4-0.3,0.7-0.4c0.1,0,0.1-0.1,0.1-0.1c0-0.1-0.1-0.1-0.1-0.1c-0.4,0-0.8,0-1.2,0h-1.1
		c-0.8,0-1.5,0-2.3,0c-0.8,0-1.5,0-2.3-0.1c-0.1,0-0.1,0-0.1,0.1c0,0.1,0,0.1,0.1,0.1C69.4,1,70,1.2,70.4,1.6
		C70.8,1.9,71,2.4,71,3.2c0,0.2,0,0.5,0,0.8c0,0.3,0,0.7,0,1.1c0,0.6,0,1.2,0,1.9c0,0.7,0,1.4,0,2.2c0,0.8,0,1.6,0,2.4
		c0,0.8,0,1.5,0,2.2c0,0.7,0.1,1.2,0.1,1.7c0,0.5,0.1,0.8,0.2,1c0.3,0.9,0.7,1.7,1.3,2.4s1.2,1.4,2,1.9c0.8,0.5,1.6,0.9,2.5,1.2
		s1.8,0.5,2.7,0.5c1.2,0,2.4-0.2,3.4-0.7c1-0.5,1.9-1.1,2.6-1.9c0.7-0.8,1.3-1.7,1.7-2.8c0.4-1.1,0.6-2.2,0.6-3.4V3.2
		c0-0.6,0.2-1.1,0.6-1.5c0.4-0.5,0.8-0.7,1.4-0.8l0-0.2H89.6z"/>
	<path class="st0" d="M47.8,21.8c-0.7-0.1-1.2-0.2-1.7-0.5c-0.5-0.3-0.9-0.7-1.2-1.3c-0.7-1.4-1.4-2.8-2.1-4.3
		c-0.7-1.5-1.3-3-1.9-4.6C40.2,9.5,39.6,8,39,6.4c-0.6-1.5-1.1-3-1.7-4.5c-0.1-0.3-0.2-0.6-0.3-0.9c-0.1-0.3-0.2-0.6-0.3-0.8
		c0-0.1-0.1-0.1-0.1-0.1s-0.1,0-0.1,0.1C36,1.6,35.5,3,35,4.4c-0.5,1.4-1,2.8-1.5,4.1c-0.7,1.9-1.3,3.7-2,5.6
		c-0.7,1.8-1.4,3.7-2.1,5.5c-0.3,0.7-0.7,1.2-1.2,1.6c-0.5,0.4-1.1,0.6-1.9,0.7c-0.1,0-0.1,0.1-0.1,0.1c0,0.1,0,0.1,0.1,0.1
		c0.2,0,0.4,0,0.6,0s0.4,0,0.6,0c0.3,0,0.7-0.1,1-0.1c0.3,0,0.7,0,1,0c0.3,0,0.7,0,1,0c0.3,0,0.7,0,1,0.1c0.2,0,0.3,0,0.5,0
		s0.3,0,0.5,0v-0.2c-0.2,0-0.3,0-0.5-0.1c-0.2,0-0.4-0.1-0.5-0.2c-0.2-0.1-0.3-0.2-0.4-0.3c-0.1-0.1-0.2-0.3-0.2-0.5
		c0-0.3,0.1-0.8,0.3-1.4c0.2-0.7,0.4-1.3,0.6-2.1c0.2-0.7,0.5-1.4,0.7-2.1c0.3-0.7,0.4-1.2,0.6-1.5h6.2c0.5,1.2,0.9,2.5,1.4,3.7
		c0.5,1.2,1,2.5,1.4,3.7l-1.6,0.7c-0.1,0-0.1,0.1-0.1,0.2c0,0.1,0.1,0.1,0.1,0.1c0.1,0,0.2,0,0.3,0c0.1,0,0.3,0,0.3,0
		c0.5,0,1-0.1,1.5-0.1c0.5,0,1,0,1.5,0c0.2,0,0.4,0,0.6,0c0.2,0,0.4,0,0.6,0.1c0.2,0,0.5,0.1,0.7,0.1s0.5,0,0.8,0l0.7,0
		c0.1,0,0.1,0,0.1-0.1C47.9,21.8,47.9,21.8,47.8,21.8z M33.7,12.5c0.4-1.1,0.8-2.3,1.1-3.4c0.3-1.1,0.7-2.2,1.1-3.4
		c0.1-0.3,0.2-0.5,0.2-0.8s0.2-0.5,0.3-0.8l2.6,8.3H33.7z"/>
	<path class="st0" d="M22.6,0.6c-0.2,0-0.3,0-0.4,0c-0.2,0-0.4,0-0.6,0c-0.2,0-0.4,0.1-0.6,0.1l-1,0.1c-0.6,0-1.1,0-1.7,0
		c-0.6-0.1-1.1-0.1-1.7-0.2c-0.1,0-0.1,0-0.1,0c0,0,0,0.1,0,0.1c0.1,0.1,0.3,0.2,0.5,0.2c0.2,0,0.3,0.1,0.5,0.1
		c0.2,0,0.4,0.1,0.6,0.1c0.2,0,0.4,0.1,0.5,0.3C18.8,1.6,18.9,1.8,19,2c0.1,0.3,0.1,0.7,0.1,1.1c0,2.4,0,4.8,0.1,7.2
		c0.1,2.4,0.1,4.8,0.1,7.2v0.2c-2.7-3.1-5.4-6.1-8.2-9C8.4,6,5.7,3.1,2.8,0.1c0,0-0.1,0-0.2,0C2.5,0.2,2.4,0.5,2.4,1
		c0,0.5-0.1,1.1-0.1,1.9c0,0.8,0,1.7-0.1,2.6c0,1,0,2,0,3.1c0,1.6,0,3.1,0,4.6c0,1.5,0,2.8,0,3.9c0,0.5,0,0.9,0,1.3v0.8
		c0,0.3,0,0.6-0.1,0.9c-0.1,0.2-0.2,0.4-0.3,0.6c-0.1,0.1-0.3,0.3-0.4,0.3C1.4,21,1.2,21.1,1,21.2c-0.2,0.1-0.3,0.2-0.5,0.3
		c-0.2,0.1-0.3,0.2-0.5,0.4c0,0,0,0.1,0,0.1c0,0.1,0.1,0.1,0.1,0.1c0.5-0.1,1-0.1,1.5-0.2c0.5-0.1,1-0.1,1.5-0.1c0.4,0,0.7,0,1.1,0
		c0.4,0,0.7,0.1,1.1,0.1C5.5,22,5.8,22,6.1,22c0.3,0,0.5,0,0.8,0.1c0.1,0,0.1,0,0.1-0.1c0,0,0-0.1,0-0.1c-0.3-0.2-0.5-0.3-0.7-0.4
		c-0.2-0.1-0.5-0.1-0.7-0.2c-0.2,0-0.4-0.1-0.5-0.1S4.7,21,4.6,20.9c-0.1-0.1-0.2-0.4-0.3-0.6c-0.1-0.3-0.1-0.7-0.1-1.2
		c0-1,0-2-0.1-3c0-1-0.1-2-0.1-3c0-1-0.1-2-0.1-3c0-1-0.1-2-0.1-3c0-0.4,0-0.7,0-1.1c0-0.3,0.1-0.7,0.1-1.1c0.4,0.4,0.7,0.8,1,1.2
		c0.3,0.4,0.6,0.8,1,1.2c2.3,2.6,4.6,5.2,7,7.8c2.4,2.6,4.9,5,7.5,7.3c0,0,0.1,0,0.1,0c0,0,0.1-0.1,0.1-0.1c0.2-1.8,0.3-3.5,0.3-5.3
		c0-1.8,0.1-3.5,0.1-5.3V9.3c0-0.8,0-1.6,0-2.4c0-0.8,0-1.6,0-2.4V2.2c0-0.2,0.1-0.4,0.2-0.5c0.1-0.1,0.2-0.3,0.4-0.3
		c0.2-0.1,0.4-0.2,0.6-0.2C22.4,1,22.6,1,22.7,0.9c0,0,0.1,0,0.1,0s0.1,0,0.1,0l0-0.2C22.9,0.6,22.7,0.6,22.6,0.6z"/>
	<path class="st0" d="M65.2,0.4c-0.1,0-0.3,0-0.4,0.1c-0.1,0-0.2,0-0.3,0.1c-0.2,0-0.3,0.1-0.5,0.1c-0.2,0-0.4,0.1-0.5,0.1H50.9
		c-0.5,0-0.9,0-1.3-0.1c-0.4-0.1-0.8-0.2-1.2-0.5c-0.1-0.1-0.1-0.1-0.2,0.1c0,0.2-0.1,0.4-0.1,0.5c-0.1,0.2-0.1,0.4-0.2,0.6
		c-0.1,0.4-0.2,0.8-0.3,1.1c-0.1,0.4-0.1,0.7-0.1,1.1c0,0.2,0,0.3,0.1,0.5c0,0.1,0,0.1,0.1,0.1c0,0,0.1,0,0.1-0.1
		c0.2-0.5,0.6-1,1.1-1.5c0.5-0.4,1-0.7,1.6-0.7h4.8v17.1c0,0.5,0,0.8,0,1.1c0,0.3-0.1,0.5-0.2,0.7c-0.1,0.2-0.3,0.3-0.6,0.5
		c-0.3,0.1-0.6,0.2-1.1,0.3c-0.1,0-0.1,0.1-0.1,0.1c0,0.1,0,0.1,0.1,0.1c0.5,0,1-0.1,1.5-0.1c0.5,0,1,0,1.5,0c0.7,0,1.4,0,2.1,0.1
		c0.7,0,1.4,0.1,2,0.1c0.1,0,0.1,0,0.1-0.1c0-0.1,0-0.1-0.1-0.1c-0.7-0.1-1.4-0.4-1.8-1c-0.5-0.5-0.7-1.2-0.7-2V2h3.5
		c0.4,0,0.8,0,1.2,0.1c0.4,0.1,0.7,0.2,1,0.4c0.3,0.2,0.6,0.4,0.8,0.7c0.2,0.3,0.4,0.7,0.4,1.2c0,0.1,0.1,0.1,0.1,0.1
		c0.1,0,0.1,0,0.1-0.1c0.2-0.5,0.2-1.1,0.3-1.8c0-0.6,0-1.3,0-1.8V0.5C65.3,0.4,65.3,0.4,65.2,0.4z"/>
	<path class="st0" d="M226.3,0.4c-0.1,0-0.3,0-0.4,0.1c-0.1,0-0.2,0-0.3,0.1c-0.2,0-0.3,0.1-0.5,0.1c-0.2,0-0.4,0.1-0.5,0.1H212
		c-0.5,0-0.9,0-1.3-0.1c-0.4-0.1-0.8-0.2-1.2-0.5c-0.1-0.1-0.1-0.1-0.2,0.1c0,0.2-0.1,0.4-0.1,0.5c-0.1,0.2-0.1,0.4-0.2,0.6
		c-0.1,0.4-0.2,0.8-0.3,1.1c-0.1,0.4-0.1,0.7-0.1,1.1c0,0.2,0,0.3,0.1,0.5c0,0.1,0,0.1,0.1,0.1c0,0,0.1,0,0.1-0.1
		c0.2-0.5,0.6-1,1.1-1.5c0.5-0.4,1-0.7,1.6-0.7h4.8v17.1c0,0.5,0,0.8,0,1.1c0,0.3-0.1,0.5-0.2,0.7c-0.1,0.2-0.3,0.3-0.6,0.5
		c-0.3,0.1-0.6,0.2-1.1,0.3c-0.1,0-0.1,0.1-0.1,0.1c0,0.1,0,0.1,0.1,0.1c0.5,0,1-0.1,1.5-0.1c0.5,0,1,0,1.5,0c0.7,0,1.4,0,2.1,0.1
		c0.7,0,1.4,0.1,2,0.1c0.1,0,0.1,0,0.1-0.1s0-0.1-0.1-0.1c-0.7-0.1-1.3-0.4-1.8-1c-0.5-0.5-0.7-1.2-0.7-2V2h3.5c0.4,0,0.8,0,1.2,0.1
		c0.4,0.1,0.7,0.2,1,0.4c0.3,0.2,0.6,0.4,0.8,0.7s0.4,0.7,0.5,1.2c0,0.1,0.1,0.1,0.1,0.1s0.1,0,0.1-0.1c0.2-0.5,0.2-1.1,0.3-1.8
		c0-0.6,0-1.3,0-1.8V0.5C226.4,0.4,226.4,0.4,226.3,0.4z"/>
	<path class="st0" d="M291,21.8c-0.7-0.1-1.2-0.2-1.7-0.5c-0.5-0.3-0.9-0.7-1.2-1.3c-0.7-1.4-1.4-2.8-2.1-4.3
		c-0.7-1.5-1.3-3-1.9-4.6c-0.6-1.5-1.2-3.1-1.8-4.6c-0.6-1.5-1.1-3-1.7-4.5c-0.1-0.3-0.2-0.6-0.3-0.9c-0.1-0.3-0.2-0.6-0.3-0.8
		c0-0.1-0.1-0.1-0.1-0.1c-0.1,0-0.1,0-0.1,0.1c-0.5,1.4-1,2.7-1.5,4.1c-0.5,1.4-1,2.8-1.5,4.1c-0.7,1.9-1.3,3.7-2,5.6
		c-0.7,1.8-1.4,3.7-2.1,5.5c-0.3,0.7-0.7,1.2-1.2,1.6c-0.5,0.4-1.1,0.6-1.9,0.7c-0.1,0-0.1,0.1-0.1,0.1s0,0.1,0.1,0.1
		c0.2,0,0.4,0,0.6,0s0.4,0,0.6,0c0.3,0,0.7-0.1,1-0.1c0.3,0,0.7,0,1,0c0.3,0,0.7,0,1,0c0.3,0,0.7,0,1,0.1c0.2,0,0.3,0,0.5,0
		s0.3,0,0.5,0v-0.2c-0.2,0-0.3,0-0.5-0.1c-0.2,0-0.4-0.1-0.5-0.2c-0.2-0.1-0.3-0.2-0.4-0.3c-0.1-0.1-0.2-0.3-0.2-0.5
		c0-0.3,0.1-0.8,0.3-1.4c0.2-0.7,0.4-1.3,0.6-2.1c0.2-0.7,0.5-1.4,0.7-2.1c0.3-0.7,0.4-1.2,0.6-1.5h6.2c0.5,1.2,0.9,2.5,1.4,3.7
		c0.5,1.2,1,2.5,1.4,3.7l-1.6,0.7c-0.1,0-0.1,0.1-0.1,0.2s0.1,0.1,0.1,0.1c0.1,0,0.2,0,0.3,0s0.3,0,0.3,0c0.5,0,1-0.1,1.5-0.1
		c0.5,0,1,0,1.5,0c0.2,0,0.4,0,0.6,0c0.2,0,0.4,0,0.6,0.1c0.2,0,0.5,0.1,0.7,0.1c0.3,0,0.5,0,0.8,0l0.7,0c0.1,0,0.1,0,0.1-0.1
		C291.1,21.8,291.1,21.8,291,21.8z M276.9,12.5c0.4-1.1,0.8-2.3,1.1-3.4c0.3-1.1,0.7-2.2,1.1-3.4c0.1-0.3,0.2-0.5,0.2-0.8
		c0.1-0.3,0.2-0.5,0.3-0.8l2.6,8.3H276.9z"/>
	<path class="st0" d="M308.5,0.4c-0.1,0-0.3,0-0.4,0.1c-0.1,0-0.2,0-0.3,0.1c-0.2,0-0.3,0.1-0.5,0.1c-0.2,0-0.4,0.1-0.5,0.1h-12.6
		c-0.5,0-0.9,0-1.3-0.1c-0.4-0.1-0.8-0.2-1.2-0.5c-0.1-0.1-0.1-0.1-0.2,0.1c0,0.2-0.1,0.4-0.1,0.5c-0.1,0.2-0.1,0.4-0.2,0.6
		c-0.1,0.4-0.2,0.8-0.3,1.1c-0.1,0.4-0.1,0.7-0.1,1.1c0,0.2,0,0.3,0.1,0.5c0,0.1,0,0.1,0.1,0.1c0,0,0.1,0,0.1-0.1
		c0.2-0.5,0.6-1,1.1-1.5c0.5-0.4,1-0.7,1.6-0.7h4.8v17.1c0,0.5,0,0.8,0,1.1c0,0.3-0.1,0.5-0.2,0.7c-0.1,0.2-0.3,0.3-0.6,0.5
		c-0.3,0.1-0.6,0.2-1.1,0.3c-0.1,0-0.1,0.1-0.1,0.1c0,0.1,0,0.1,0.1,0.1c0.5,0,1-0.1,1.5-0.1c0.5,0,1,0,1.5,0c0.7,0,1.4,0,2.1,0.1
		c0.7,0,1.4,0.1,2,0.1c0.1,0,0.1,0,0.1-0.1c0-0.1,0-0.1-0.1-0.1c-0.7-0.1-1.3-0.4-1.8-1c-0.5-0.5-0.7-1.2-0.7-2V2h3.5
		c0.4,0,0.8,0,1.2,0.1c0.4,0.1,0.7,0.2,1,0.4c0.3,0.2,0.6,0.4,0.8,0.7s0.4,0.7,0.4,1.2c0,0.1,0.1,0.1,0.1,0.1s0.1,0,0.1-0.1
		c0.2-0.5,0.2-1.1,0.3-1.8c0-0.6,0-1.3,0-1.8V0.5C308.5,0.4,308.5,0.4,308.5,0.4z"/>
	<path class="st0" d="M264.7,20.4c-0.7,0.5-1.5,0.7-2.4,0.7c-0.3,0-0.7,0-1.1-0.1c-0.4-0.1-0.7-0.2-1.1-0.3
		c-0.3-0.2-0.7-0.3-0.9-0.6c-0.3-0.2-0.5-0.5-0.7-0.8v-8.1h1.2h0.9c0.4,0,0.8,0,1.2,0c0.4,0,0.8,0.1,1.2,0.2
		c0.4,0.1,0.6,0.2,0.7,0.3c0.2,0.2,0.3,0.3,0.3,0.5c0.1,0.2,0.1,0.3,0.1,0.5s0.1,0.3,0.1,0.5c0.1,0.1,0.1,0.3,0.2,0.4
		c0,0,0.1,0,0.1,0c0,0,0.1-0.1,0.1-0.1c0-0.4,0.1-0.7,0.1-1.1c0-0.4,0.1-0.7,0.2-1.1c0-0.3,0.1-0.6,0.1-0.9c0-0.3,0.1-0.6,0.1-0.9
		c0-0.1,0-0.2-0.1-0.1c-0.2,0-0.3,0.1-0.5,0.1c-0.2,0.1-0.3,0.1-0.5,0.2c-0.2,0.1-0.4,0.2-0.6,0.3c-0.2,0.1-0.4,0.1-0.5,0.1h-4.6
		V1.7h3.1c0.9,0,1.6,0.2,2.1,0.5c0.6,0.3,0.9,0.9,1,1.9c0,0.1,0,0.1,0.1,0.1c0.1,0,0.1,0,0.1-0.1c0-0.1,0-0.2,0.1-0.2
		c0-0.1,0-0.1,0.1-0.2c0.1-0.5,0.2-1,0.3-1.6c0.1-0.5,0.2-1.1,0.2-1.6c0-0.1-0.1-0.2-0.2-0.1c-0.1,0.1-0.3,0.1-0.7,0.1
		c-0.3,0-0.7,0.1-1.2,0.1c-0.5,0-1,0-1.6,0c-0.6,0-1.2,0-1.8,0c-0.8,0-1.7,0-2.6,0c-0.9,0-1.7,0-2.3,0h-1.8c0,0-0.1,0-0.1,0.1
		c0,0,0,0.1,0,0.1c0.2,0.2,0.4,0.3,0.6,0.3c0.2,0.1,0.4,0.1,0.6,0.2c0.2,0,0.3,0.1,0.5,0.1c0.1,0,0.3,0.1,0.4,0.2
		c0.1,0.1,0.2,0.2,0.3,0.4c0.1,0.2,0.1,0.4,0.1,0.7V19c0,0.3,0,0.7-0.1,1c0,0.3-0.1,0.6-0.3,0.9c-0.1,0.3-0.3,0.5-0.6,0.6
		c-0.3,0.2-0.6,0.3-1,0.3v0.2c0.6,0,1.2-0.1,1.9-0.1h1.9c0.6,0,1.2,0,1.8,0c0.6,0,1.2,0,1.8,0c0.6,0,1.2,0,1.9,0h1.9l0.4-0.1
		c0.1-0.1,0.1-0.1,0.1-0.1c0.1,0,0.1,0,0.1-0.1l0.1-0.7v0c0.1-0.5,0.2-0.9,0.2-1.4c0.1-0.5,0.1-0.9,0.2-1.4l-0.2,0
		C265.8,19.2,265.3,19.9,264.7,20.4z"/>
	<path class="st0" d="M322.7,14.4c-0.3-0.6-0.6-1.2-1-1.7c-0.4-0.5-0.9-1-1.5-1.5c-0.5-0.5-1.1-0.9-1.6-1.4c-0.5-0.4-1-0.8-1.5-1.2
		c-0.5-0.4-0.9-0.8-1.2-1.3c-0.4-0.4-0.6-0.9-0.9-1.3c-0.2-0.5-0.3-0.9-0.3-1.5c0-0.5,0.1-1,0.3-1.4c0.2-0.4,0.4-0.8,0.8-1.1
		c0.3-0.3,0.7-0.5,1.1-0.7c0.4-0.2,0.9-0.3,1.4-0.3c0.5,0,0.9,0.1,1.3,0.3c0.4,0.2,0.7,0.4,1,0.7c0.3,0.3,0.6,0.7,0.8,1.1
		c0.2,0.4,0.4,0.8,0.5,1.3c0,0.1,0.1,0.1,0.1,0.1c0.1,0,0.1,0,0.1-0.1c0,0,0-0.1,0-0.1c0,0,0-0.1,0-0.1c0.1-0.6,0.2-1.2,0.2-1.9
		c0.1-0.6,0.1-1.2,0.2-1.9c0-0.1,0-0.1-0.1-0.1c-0.9-0.3-1.8-0.4-2.8-0.4c-0.7,0-1.5,0.1-2.4,0.3c-0.9,0.2-1.7,0.5-2.4,0.9
		c-0.7,0.4-1.4,0.9-1.9,1.6c-0.5,0.6-0.8,1.4-0.8,2.3c0,0.6,0.1,1.2,0.4,1.7c0.3,0.6,0.6,1.2,1,1.7c0.4,0.6,0.9,1.1,1.5,1.6
		c0.5,0.5,1.1,1.1,1.6,1.6c0.5,0.5,1,1,1.5,1.5c0.5,0.5,1,1,1.3,1.5c0.4,0.5,0.7,1,1,1.5c0.2,0.5,0.4,1,0.4,1.5c0,0.5-0.1,1-0.4,1.4
		c-0.3,0.4-0.6,0.8-1,1.1c-0.4,0.3-0.9,0.5-1.4,0.7c-0.5,0.2-1,0.2-1.5,0.2c-0.6,0-1.1-0.1-1.6-0.2c-0.5-0.2-0.9-0.4-1.3-0.7
		c-0.4-0.3-0.7-0.7-0.9-1.2c-0.2-0.5-0.3-1-0.3-1.6v-0.3c0-0.1,0-0.1-0.1-0.1s-0.1,0-0.1,0.1c0,0.2-0.1,0.3-0.1,0.5
		c0,0.2-0.1,0.3-0.1,0.5c-0.1,0.3-0.2,0.6-0.2,0.9c-0.1,0.3-0.1,0.6-0.1,1c0,0.5,0.1,0.9,0.3,1.2c0.2,0.3,0.5,0.6,0.9,0.8
		c0.3,0.2,0.7,0.3,1.2,0.4c0.4,0.1,0.8,0.1,1.2,0.1c0.8,0,1.7-0.1,2.6-0.4c0.9-0.3,1.7-0.7,2.5-1.2c0.7-0.5,1.4-1.2,1.8-1.9
		c0.5-0.7,0.7-1.6,0.7-2.5C323,15.7,322.9,15,322.7,14.4z"/>
	<path class="st0" d="M187.5,21.2c-0.8-0.4-1.5-0.9-2.2-1.6c-0.7-0.7-1.4-1.4-2-2.2c-0.6-0.8-1.2-1.6-1.8-2.4
		c-0.4-0.5-0.8-1-1.1-1.5c-0.4-0.5-0.7-0.9-1-1.2c0.4-0.4,0.8-0.9,1.3-1.3c0.4-0.5,0.8-1,1.1-1.6c0.3-0.6,0.6-1.1,0.8-1.8
		c0.2-0.6,0.3-1.2,0.3-1.8c0-0.9-0.2-1.8-0.6-2.4c-0.4-0.7-0.9-1.2-1.5-1.6c-0.6-0.4-1.3-0.7-2.1-0.9c-0.8-0.2-1.6-0.3-2.4-0.3
		c-0.3,0-0.6,0-0.9,0c-0.3,0-0.6,0-0.9,0c-0.6,0.1-1.3,0.1-1.9,0.1c-0.6,0-1.2,0-1.7-0.1c-0.3,0-0.6,0-0.8,0c-0.3,0-0.6,0-0.9,0
		h-0.6c-0.1,0-0.1,0-0.1,0.1c0,0.1,0,0.1,0.1,0.1c0.6,0.2,1.1,0.5,1.6,0.9c0.5,0.5,0.7,1,0.7,1.6v15.7c0,0.6-0.2,1.2-0.6,1.7
		c-0.4,0.5-0.8,0.9-1.4,1.2c-0.1,0-0.1,0.1-0.1,0.2s0.1,0.1,0.1,0.1c0.6-0.1,1.2-0.1,1.8-0.2c0.6,0,1.2-0.1,1.8-0.1
		c0.6,0,1.2,0,1.8,0.1c0.6,0,1.2,0.1,1.8,0.1v-0.2c-0.8-0.1-1.4-0.4-1.9-0.9c-0.5-0.6-0.7-1.2-0.7-2v-5.6c0.2,0,0.4,0,0.6,0h0.6
		c0.5,0,1,0,1.5,0.1c0.5,0.1,0.9,0.3,1.3,0.6c0.5,0.4,1,1,1.5,1.6c0.5,0.7,1,1.3,1.4,1.9c0.4,0.6,0.8,1.2,1.3,1.8
		c0.5,0.6,1,1.2,1.5,1.6c0.5,0.5,1.1,0.9,1.8,1.2c0.6,0.3,1.3,0.5,2.1,0.5c0.5,0,1-0.1,1.5-0.2c0.5-0.1,0.9-0.3,1.4-0.5l-0.1-0.2
		C189.1,21.7,188.3,21.6,187.5,21.2z M176.1,11.7c-0.4,0-0.9,0-1.3,0c-0.5,0-0.9-0.1-1.3-0.2V1.7c0.3-0.1,0.6-0.2,0.9-0.2
		c0.3,0,0.6-0.1,1-0.1c0.8,0,1.5,0.2,2,0.5c0.6,0.3,1.1,0.8,1.5,1.4c0.4,0.6,0.7,1.2,0.9,1.9c0.2,0.7,0.3,1.4,0.3,2.1
		c0,1.4-0.3,2.5-0.9,3.3C178.6,11.3,177.6,11.7,176.1,11.7z"/>
	<path class="st0" d="M152.4,20.2c-0.8,0.6-1.8,0.8-2.8,0.8c-0.5,0-1-0.1-1.5-0.2c-0.4-0.2-0.8-0.4-1.2-0.7
		c-0.3-0.3-0.6-0.6-0.8-1.1c-0.2-0.4-0.3-0.9-0.3-1.5V3c0-0.6,0.2-1.1,0.7-1.5c0.5-0.4,1-0.6,1.5-0.7c0.1,0,0.1-0.1,0.1-0.1
		c0-0.1,0-0.1-0.1-0.1c-0.6,0-1.1,0.1-1.7,0.1c-0.6,0-1.1,0.1-1.7,0.1c-1.2,0-2.4,0-3.6-0.1v0.2c0.6,0,1.1,0.2,1.6,0.6
		c0.4,0.4,0.7,0.9,0.7,1.6v16c0,0.3,0,0.6-0.1,0.9c-0.1,0.3-0.2,0.6-0.4,0.9c-0.2,0.3-0.4,0.5-0.6,0.7c-0.2,0.2-0.5,0.3-0.8,0.3
		c-0.1,0-0.1,0-0.1,0.1c0,0.1,0,0.1,0.1,0.1c0.2,0,0.5,0,0.8,0c0.3,0,0.6,0,0.8,0c1.6-0.1,3.2-0.1,4.8-0.1c2,0,3.9,0.1,5.9,0.3
		c0,0,0.1,0,0.1-0.1c0,0,0-0.1,0.1-0.1c0-0.1,0-0.1,0-0.1c0.2-0.5,0.4-1,0.5-1.6c0.1-0.6,0.1-1.1,0.2-1.7c0-0.1,0-0.1,0-0.2
		c0-0.1,0-0.2,0-0.2l-0.2-0.1C153.9,18.9,153.3,19.6,152.4,20.2z"/>
	<path class="st0" d="M203.4,20.4c-0.7,0.5-1.5,0.7-2.4,0.7c-0.3,0-0.7,0-1.1-0.1c-0.4-0.1-0.7-0.2-1.1-0.3
		c-0.3-0.2-0.7-0.3-0.9-0.6c-0.3-0.2-0.5-0.5-0.7-0.8v-8.1h1.2h0.9c0.4,0,0.8,0,1.2,0c0.4,0,0.8,0.1,1.2,0.2
		c0.4,0.1,0.6,0.2,0.7,0.3c0.2,0.2,0.3,0.3,0.3,0.5c0.1,0.2,0.1,0.3,0.1,0.5s0.1,0.3,0.1,0.5c0.1,0.1,0.1,0.3,0.2,0.4
		c0,0,0.1,0,0.1,0c0,0,0.1-0.1,0.1-0.1c0-0.4,0.1-0.7,0.1-1.1c0-0.4,0.1-0.7,0.2-1.1c0-0.3,0.1-0.6,0.1-0.9c0-0.3,0.1-0.6,0.1-0.9
		c0-0.1,0-0.2-0.1-0.1c-0.2,0-0.3,0.1-0.5,0.1c-0.2,0.1-0.3,0.1-0.5,0.2c-0.2,0.1-0.4,0.2-0.6,0.3c-0.2,0.1-0.4,0.1-0.5,0.1h-4.6
		V1.7h3.1c0.9,0,1.6,0.2,2.1,0.5c0.6,0.3,0.9,0.9,1,1.9c0,0.1,0,0.1,0.1,0.1c0.1,0,0.1,0,0.1-0.1c0-0.1,0-0.2,0.1-0.2
		c0-0.1,0-0.1,0.1-0.2c0.1-0.5,0.2-1,0.3-1.6c0.1-0.5,0.2-1.1,0.2-1.6c0-0.1-0.1-0.2-0.2-0.1c-0.1,0.1-0.3,0.1-0.7,0.1
		c-0.3,0-0.7,0.1-1.2,0.1c-0.5,0-1,0-1.6,0c-0.6,0-1.2,0-1.8,0c-0.8,0-1.7,0-2.6,0c-0.9,0-1.7,0-2.3,0h-1.8c0,0-0.1,0-0.1,0.1
		c0,0,0,0.1,0,0.1c0.2,0.2,0.4,0.3,0.6,0.3c0.2,0.1,0.4,0.1,0.6,0.2c0.2,0,0.3,0.1,0.5,0.1c0.1,0,0.3,0.1,0.4,0.2
		c0.1,0.1,0.2,0.2,0.3,0.4c0.1,0.2,0.1,0.4,0.1,0.7V19c0,0.3,0,0.7-0.1,1c0,0.3-0.1,0.6-0.3,0.9c-0.1,0.3-0.3,0.5-0.6,0.6
		c-0.3,0.2-0.6,0.3-1,0.3v0.2c0.6,0,1.2-0.1,1.9-0.1h1.9c0.6,0,1.2,0,1.8,0c0.6,0,1.2,0,1.8,0c0.6,0,1.2,0,1.9,0h1.9l0.4-0.1
		c0.1-0.1,0.1-0.1,0.1-0.1c0.1,0,0.1,0,0.1-0.1l0.1-0.7v0c0.1-0.5,0.2-0.9,0.2-1.4c0.1-0.5,0.1-0.9,0.2-1.4l-0.2,0
		C204.5,19.2,204,19.9,203.4,20.4z"/>
	<path class="st0" d="M248.8,21.2c-0.8-0.4-1.5-0.9-2.2-1.6c-0.7-0.7-1.4-1.4-2-2.2c-0.6-0.8-1.2-1.6-1.8-2.4
		c-0.4-0.5-0.8-1-1.1-1.5c-0.4-0.5-0.7-0.9-1-1.2c0.4-0.4,0.8-0.9,1.3-1.3c0.4-0.5,0.8-1,1.1-1.6c0.3-0.6,0.6-1.1,0.8-1.8
		c0.2-0.6,0.3-1.2,0.3-1.8c0-0.9-0.2-1.8-0.6-2.4c-0.4-0.7-0.9-1.2-1.5-1.6c-0.6-0.4-1.3-0.7-2.1-0.9c-0.8-0.2-1.6-0.3-2.4-0.3
		c-0.3,0-0.6,0-0.9,0c-0.3,0-0.6,0-0.9,0c-0.6,0.1-1.3,0.1-1.9,0.1c-0.6,0-1.2,0-1.7-0.1c-0.3,0-0.6,0-0.8,0c-0.3,0-0.6,0-0.9,0
		h-0.6c-0.1,0-0.1,0-0.1,0.1c0,0.1,0,0.1,0.1,0.1c0.6,0.2,1.1,0.5,1.6,0.9c0.5,0.5,0.7,1,0.7,1.6v15.7c0,0.6-0.2,1.2-0.6,1.7
		c-0.4,0.5-0.8,0.9-1.4,1.2c-0.1,0-0.1,0.1-0.1,0.2c0,0.1,0.1,0.1,0.1,0.1c0.6-0.1,1.2-0.1,1.8-0.2c0.6,0,1.2-0.1,1.8-0.1
		c0.6,0,1.2,0,1.8,0.1c0.6,0,1.2,0.1,1.8,0.1v-0.2c-0.8-0.1-1.4-0.4-1.9-0.9c-0.5-0.6-0.7-1.2-0.7-2v-5.6c0.2,0,0.4,0,0.6,0h0.6
		c0.5,0,1,0,1.5,0.1c0.5,0.1,0.9,0.3,1.3,0.6c0.5,0.4,1,1,1.5,1.6c0.5,0.7,1,1.3,1.4,1.9c0.4,0.6,0.8,1.2,1.3,1.8
		c0.5,0.6,1,1.2,1.5,1.6c0.5,0.5,1.1,0.9,1.8,1.2c0.6,0.3,1.3,0.5,2.1,0.5c0.5,0,1-0.1,1.5-0.2c0.5-0.1,0.9-0.3,1.4-0.5l-0.1-0.2
		C250.3,21.7,249.5,21.6,248.8,21.2z M237.4,11.7c-0.4,0-0.9,0-1.3,0c-0.5,0-0.9-0.1-1.3-0.2V1.7c0.3-0.1,0.6-0.2,0.9-0.2
		c0.3,0,0.6-0.1,1-0.1c0.8,0,1.5,0.2,2,0.5c0.6,0.3,1.1,0.8,1.5,1.4c0.4,0.6,0.7,1.2,0.9,1.9c0.2,0.7,0.3,1.4,0.3,2.1
		c0,1.4-0.3,2.5-0.9,3.3C239.9,11.3,238.9,11.7,237.4,11.7z"/>
</g>
</svg>
